# xmcd
#
# Track frame offsets:
#	183
#	12298
#	24383
#	38210
#
# Disc length: 673 seconds
#
# Revision: 0
# Processed by: cddbd v1.5.2PL0 Copyright (c) Steve Scherf et al.
# Submitted via: audiograbber 1.83.01
#
DISCID=24029f04
DTITLE=Reeves, Martha  and The Vandellas - Dancing in the street
DYEAR=1968
DGENRE=Soul
TTITLE0=Dancing in the street
TTITLE1=I can't dance to that music you're playin'
TTITLE2=My baby loves me
TTITLE3=Motoring
EXTD=
EXTT0=
EXTT1=
EXTT2=
EXTT3=
PLAYORDER=
